<?xml version="1.0" encoding="UTF-8" standalone="no"?>
<svg
   xmlns:dc="http://purl.org/dc/elements/1.1/"
   xmlns:cc="http://creativecommons.org/ns#"
   xmlns:rdf="http://www.w3.org/1999/02/22-rdf-syntax-ns#"
   xmlns:svg="http://www.w3.org/2000/svg"
   xmlns="http://www.w3.org/2000/svg"
   xmlns:xlink="http://www.w3.org/1999/xlink"
   xmlns:sodipodi="http://sodipodi.sourceforge.net/DTD/sodipodi-0.dtd"
   xmlns:inkscape="http://www.inkscape.org/namespaces/inkscape"
   width="64"
   height="64"
   viewBox="0 0 16.933333 16.933334"
   version="1.1"
   id="svg8"
   inkscape:version="1.0.1 (3bc2e813f5, 2020-09-07)"
   sodipodi:docname="back-move-stick.svg">
  <defs
     id="defs2">
    <linearGradient
       inkscape:collect="always"
       id="linearGradient977">
      <stop
         style="stop-color:#1565c0;stop-opacity:1"
         offset="0"
         id="stop971" />
      <stop
         style="stop-color:#1565c0;stop-opacity:1"
         offset="0.49199173"
         id="stop973" />
      <stop
         style="stop-color:#8cc2ff;stop-opacity:1"
         offset="1"
         id="stop975" />
    </linearGradient>
    <linearGradient
       inkscape:collect="always"
       id="linearGradient894">
      <stop
         style="stop-color:#dedede;stop-opacity:1"
         offset="0"
         id="stop890" />
      <stop
         style="stop-color:#808080;stop-opacity:1"
         offset="0.49199173"
         id="stop898" />
      <stop
         style="stop-color:#dedede;stop-opacity:1"
         offset="1"
         id="stop892" />
    </linearGradient>
    <linearGradient
       inkscape:collect="always"
       xlink:href="#linearGradient894"
       id="linearGradient896"
       x1="9.9636736"
       y1="-0.9893266"
       x2="6.8036094"
       y2="13.413157"
       gradientUnits="userSpaceOnUse" />
    <radialGradient
       inkscape:collect="always"
       xlink:href="#linearGradient977"
       id="radialGradient979"
       cx="8.4572172"
       cy="6.0948663"
       fx="8.4572172"
       fy="6.0948663"
       r="7.778805"
       gradientTransform="matrix(0.97591075,0.21817012,-0.22992417,1.0284885,1.605085,-2.0187462)"
       gradientUnits="userSpaceOnUse" />
  </defs>
  <sodipodi:namedview
     id="base"
     pagecolor="#ffffff"
     bordercolor="#666666"
     borderopacity="1.0"
     inkscape:pageopacity="0.0"
     inkscape:pageshadow="2"
     inkscape:zoom="5.6"
     inkscape:cx="75.4116"
     inkscape:cy="37.726317"
     inkscape:document-units="mm"
     inkscape:current-layer="g947"
     inkscape:document-rotation="0"
     showgrid="false"
     units="px"
     inkscape:pagecheckerboard="true"
     inkscape:window-width="1920"
     inkscape:window-height="1027"
     inkscape:window-x="-8"
     inkscape:window-y="-8"
     inkscape:window-maximized="1"
     inkscape:snap-grids="false"
     inkscape:snap-others="false"
     inkscape:object-nodes="false" />
  <metadata
     id="metadata5">
    <rdf:RDF>
      <cc:Work
         rdf:about="">
        <dc:format>image/svg+xml</dc:format>
        <dc:type
           rdf:resource="http://purl.org/dc/dcmitype/StillImage" />
        <dc:title></dc:title>
      </cc:Work>
    </rdf:RDF>
  </metadata>
  <g
     inkscape:groupmode="layer"
     id="layer3"
     inkscape:label="Fond"
     sodipodi:insensitive="true">
    <path
       sodipodi:type="star"
       style="fill:url(#radialGradient979);fill-opacity:1;stroke:#000000;stroke-width:0.287999;stroke-dashoffset:16.8567;stroke-opacity:0.927235"
       id="path888"
       sodipodi:sides="6"
       sodipodi:cx="8.4572172"
       sodipodi:cy="6.0948663"
       sodipodi:r1="8.0122719"
       sodipodi:r2="6.9388313"
       sodipodi:arg1="0.73325341"
       sodipodi:arg2="1.2568522"
       inkscape:flatsided="true"
       inkscape:rounded="0"
       inkscape:randomized="0"
       d="M 14.410342,11.457403 6.7896863,13.931692 0.83656138,8.5691551 2.5040923,0.73232915 10.124748,-1.7419597 16.077873,3.6205774 Z"
       transform="rotate(-12.170008,19.754207,6.9463083)" />
  </g>
  <g
     inkscape:label="Calque 1"
     inkscape:groupmode="layer"
     id="layer1"
     style="display:inline">
    <g
       id="g947"
       style="opacity:1;stroke:none">
      <path
         style="color:#000000;font-style:normal;font-variant:normal;font-weight:normal;font-stretch:normal;font-size:medium;line-height:normal;font-family:sans-serif;font-variant-ligatures:normal;font-variant-position:normal;font-variant-caps:normal;font-variant-numeric:normal;font-variant-alternates:normal;font-variant-east-asian:normal;font-feature-settings:normal;font-variation-settings:normal;text-indent:0;text-align:start;text-decoration:none;text-decoration-line:none;text-decoration-style:solid;text-decoration-color:#000000;letter-spacing:normal;word-spacing:normal;text-transform:none;writing-mode:lr-tb;direction:ltr;text-orientation:mixed;dominant-baseline:auto;baseline-shift:baseline;text-anchor:start;white-space:normal;shape-padding:0;shape-margin:0;inline-size:0;clip-rule:nonzero;display:inline;overflow:visible;visibility:visible;isolation:auto;mix-blend-mode:normal;color-interpolation:sRGB;color-interpolation-filters:linearRGB;solid-color:#000000;solid-opacity:1;vector-effect:none;fill:#ffffff;fill-opacity:1;fill-rule:nonzero;stroke:none;stroke-width:0.0810477;stroke-linecap:butt;stroke-linejoin:miter;stroke-miterlimit:4;stroke-dasharray:none;stroke-dashoffset:0;stroke-opacity:1;color-rendering:auto;image-rendering:auto;shape-rendering:auto;text-rendering:auto;enable-background:accumulate;stop-color:#000000;stop-opacity:1"
         d="M 6.5910185,15.827755 C 5.6230763,15.278154 3.9759689,14.349135 2.9307787,13.763271 L 1.030432,12.698064 1.0298158,8.48504 1.0291995,4.272012 1.9886927,3.739839 C 2.5164155,3.447143 3.6480513,2.810595 4.5034429,2.325291 5.3588313,1.839984 6.5984637,1.136795 7.2581816,0.762644 l 1.199488,-0.680274 3.6913824,2.089588 3.691381,2.089587 v 4.227686 4.227685 l -3.640423,2.056962 c -2.00223,1.131331 -3.6874311,2.056107 -3.7448914,2.055061 -0.05746,-9.09e-4 -0.8964239,-0.45158 -1.8643661,-1.001184 z M 11.362553,14.33005 c 1.495037,-0.847141 2.948123,-1.669229 3.229088,-1.826865 l 0.510838,-0.28661 2.44e-4,-3.731535 2.45e-4,-3.731539 -3.249666,-1.841116 C 10.065983,1.899774 8.5467834,1.069205 8.4773009,1.066681 8.4077629,1.064181 6.8867224,1.890016 5.0971539,2.901926 L 1.8433992,4.741763 v 3.742555 3.742557 l 2.3942732,1.354644 c 1.3168494,0.745056 2.7987536,1.582998 3.2931197,1.862094 0.4943661,0.2791 0.9471492,0.489281 1.0061811,0.467074 0.059035,-0.02221 1.3305454,-0.733495 2.8255798,-1.580637 z M 8.0065771,12.873644 C 7.7770455,12.512256 7.3845133,11.891571 7.1342813,11.494342 l -0.454964,-0.722233 1.7277244,-0.02169 c 0.9502491,-0.01192 1.7440813,-0.0057 1.7640763,0.01395 0.03824,0.03749 -1.5919523,2.67228 -1.6902439,2.731836 -0.031331,0.01899 -0.2447653,-0.261165 -0.474297,-0.622553 z M 4.6469481,9.305272 C 3.8703451,8.833235 3.2361322,8.428493 3.237589,8.405846 3.239155,8.383188 3.8836575,7.978947 4.6700615,7.50751 L 6.0998854,6.650351 v 1.75995 c 0,0.967972 -0.00922,1.758435 -0.020449,1.756585 C 6.0681754,10.164986 5.4235672,9.777313 4.6469643,9.305272 Z M 10.520084,8.325003 V 6.560007 l 1.043659,0.62933 c 0.574012,0.346129 1.239648,0.747818 1.479187,0.892642 0.239544,0.144822 0.405301,0.288875 0.368351,0.320118 -0.125135,0.1058 -2.78596,1.687907 -2.838767,1.687907 -0.02884,0 -0.05243,-0.79425 -0.05243,-1.765001 z M 6.8093632,6.008957 c 0.5501712,-0.924543 1.5449177,-2.493135 1.582479,-2.495365 0.037121,-0.0021 1.7228978,2.65424 1.7871768,2.816235 0.01501,0.03782 -0.7891943,0.06876 -1.7871151,0.06876 H 6.577505 Z"
         id="path949" />
      <path
         style="color:#000000;font-style:normal;font-variant:normal;font-weight:normal;font-stretch:normal;font-size:medium;line-height:normal;font-family:sans-serif;font-variant-ligatures:normal;font-variant-position:normal;font-variant-caps:normal;font-variant-numeric:normal;font-variant-alternates:normal;font-variant-east-asian:normal;font-feature-settings:normal;font-variation-settings:normal;text-indent:0;text-align:start;text-decoration:none;text-decoration-line:none;text-decoration-style:solid;text-decoration-color:#000000;letter-spacing:normal;word-spacing:normal;text-transform:none;writing-mode:lr-tb;direction:ltr;text-orientation:mixed;dominant-baseline:auto;baseline-shift:baseline;text-anchor:start;white-space:normal;shape-padding:0;shape-margin:0;inline-size:0;clip-rule:nonzero;display:inline;overflow:visible;visibility:visible;isolation:auto;mix-blend-mode:normal;color-interpolation:sRGB;color-interpolation-filters:linearRGB;solid-color:#000000;solid-opacity:1;vector-effect:none;fill-opacity:0;fill-rule:nonzero;stroke:none;stroke-width:0.0810477;stroke-linecap:butt;stroke-linejoin:miter;stroke-miterlimit:4;stroke-dasharray:none;stroke-dashoffset:0;stroke-opacity:1;color-rendering:auto;image-rendering:auto;shape-rendering:auto;text-rendering:auto;enable-background:accumulate;stop-color:#000000;stop-opacity:1;fill:#8cc2ff"
         d="M 8.4570312,0.03515625 7.2382812,0.7265625 C 6.5785594,1.1007157 5.3397659,1.8057072 4.484375,2.2910156 3.6290973,2.776255 2.4961682,3.4125511 1.96875,3.7050781 l -0.98046875,0.5429688 0.001953,4.2363281 v 4.238281 l 1.91992185,1.076172 c 1.0070151,0.564466 2.5487209,1.433046 3.5273438,1.988281 l 0.1328125,0.07617 c 0.4842069,0.274936 0.9370664,0.52533 1.2753906,0.707031 0.1691622,0.09085 0.309628,0.163566 0.4121094,0.214844 0.051241,0.02564 0.091711,0.04662 0.1230469,0.06055 0.015668,0.007 0.030037,0.01161 0.041016,0.01563 0.010979,0.004 0.016763,0.0076 0.033203,0.0078 4.489e-4,8e-6 0.00555,3.65e-4 0.00781,0 0.00226,-3.66e-4 0.00412,-0.0015 0.00586,-0.002 0.00347,-8.91e-4 0.00654,-8.07e-4 0.00977,-0.002 0.00645,-0.0023 0.01297,-0.006 0.021484,-0.0098 0.017028,-0.0074 0.040304,-0.0174 0.068359,-0.03125 0.05611,-0.0277 0.1355229,-0.06889 0.234375,-0.121094 0.1977042,-0.104413 0.4749631,-0.255107 0.8144531,-0.441406 0.6789796,-0.3726 1.6022786,-0.887391 2.6035156,-1.453125 l 3.660156,-2.06836 v -4.2519528 -4.25 L 12.169922,2.1367188 Z m 0,0.09375 3.6718748,2.07812495 3.671875,2.078125 v 4.203125 4.2050778 l -3.621093,2.044922 c -1.000993,0.565597 -1.92302,1.080765 -2.601563,1.453125 -0.3392716,0.18618 -0.6174517,0.335411 -0.8144531,0.439453 -0.098501,0.05202 -0.1755999,0.094 -0.2304688,0.121094 -0.027434,0.01355 -0.049505,0.02276 -0.064453,0.0293 -0.00647,0.0028 -0.012113,0.0045 -0.015625,0.0059 -8.131e-4,-2.6e-4 0.00108,-1.32e-4 -0.00391,-0.002 -0.0081,-0.003 -0.020494,-0.0072 -0.035156,-0.01367 -0.029324,-0.01304 -0.070477,-0.03327 -0.1210937,-0.05859 C 8.1917356,16.662237 8.0515666,16.588678 7.8828125,16.498047 7.5453043,16.316784 7.0950634,16.067637 6.6113281,15.792969 5.6432719,15.243303 3.9964609,14.314435 2.9511719,13.728516 L 1.0703125,12.673828 V 8.484375 4.2949219 l 0.9375,-0.5195313 C 2.5358399,3.4825257 3.667932,2.8466968 4.5234375,2.3613281 5.3788234,1.8760225 6.6176298,1.1729769 7.2773438,0.79882812 Z m 0.021484,0.89648435 c -0.00109,-3.9e-5 -0.010051,0.00122 -0.013672,0.00195 -0.00362,7.339e-4 -0.00641,9.264e-4 -0.00977,0.00195 -0.00672,0.00205 -0.015088,0.00643 -0.023437,0.00977 -0.016699,0.00668 -0.03622,0.014992 -0.0625,0.027344 -0.05256,0.024703 -0.1263892,0.060858 -0.2167968,0.1074219 -0.180811,0.093129 -0.4337552,0.2281336 -0.74023,0.3945329 C 6.7991597,1.9011579 5.9730797,2.3611361 5.078125,2.8671875 L 1.8027344,4.71875 V 8.484375 12.25 l 2.4140625,1.367188 c 1.3168561,0.745059 2.8005078,1.582205 3.2949219,1.861328 0.2480029,0.140013 0.4842271,0.262363 0.6679687,0.347656 0.091871,0.04265 0.170018,0.07601 0.2304687,0.09766 0.030225,0.01083 0.056329,0.01866 0.078125,0.02344 0.021797,0.0048 0.037273,0.01144 0.0625,0.002 0.00915,-0.0034 0.016011,-0.0068 0.029297,-0.01367 0.013286,-0.0068 0.030945,-0.01762 0.052734,-0.0293 0.04358,-0.02336 0.1041814,-0.05609 0.1796875,-0.09766 0.1510123,-0.08312 0.3630251,-0.200479 0.6191406,-0.34375 0.5122311,-0.286544 1.2036007,-0.676008 1.9511717,-1.09961 1.495022,-0.847132 2.947987,-1.66878 3.228516,-1.826172 l 0.53125,-0.298828 V 8.484375 4.7304688 L 11.873047,2.8769531 C 10.979237,2.3705626 10.15318,1.9088974 9.5410156,1.5742188 9.2349334,1.4068794 8.9813211,1.271995 8.8007812,1.1777344 c -0.09027,-0.04713 -0.162451,-0.084102 -0.2148437,-0.109375 -0.026196,-0.012637 -0.045997,-0.022355 -0.0625,-0.029297 -0.00825,-0.00347 -0.015022,-0.00563 -0.021484,-0.00781 -0.00323,-0.00109 -0.00641,-0.00308 -0.00977,-0.00391 -0.00336,-8.283e-4 -0.012586,-0.00191 -0.013672,-0.00195 z m -0.00195,0.082031 c 3.9e-4,1.368e-4 0.00152,-1.563e-4 0.00195,0 0.00345,0.00125 0.00797,0.00346 0.013672,0.00586 0.014257,0.006 0.033109,0.017003 0.058594,0.029297 0.05097,0.024587 0.1230378,0.060509 0.2128907,0.1074219 0.1797057,0.093825 0.4324634,0.2292896 0.7382812,0.3964844 0.6116359,0.3343895 1.4385219,0.7945607 2.3320309,1.3007812 L 15.0625,4.7773438 v 3.7070312 3.708984 l -0.490234,0.275391 c -0.281401,0.15788 -1.735417,0.979022 -3.230469,1.826172 -0.747463,0.42354 -1.4391305,0.813172 -1.951172,1.099609 -0.2560207,0.143219 -0.4664682,0.260788 -0.6171875,0.34375 -0.07536,0.04148 -0.1346387,0.07456 -0.1777344,0.09766 -0.021548,0.01155 -0.040179,0.02089 -0.052734,0.02734 -0.012556,0.0064 -0.021304,0.01043 -0.019531,0.0098 0.010469,-0.0039 -0.00138,-3.54e-4 -0.017578,-0.0039 -0.016195,-0.0036 -0.040111,-0.01137 -0.068359,-0.02149 -0.056498,-0.02023 -0.1321565,-0.05174 -0.2226562,-0.09375 C 8.0338443,15.669886 7.7971444,15.54729 7.5507812,15.408203 7.0564631,15.129134 5.5746551,14.291927 4.2578125,13.546875 L 1.8847656,12.203125 V 8.484375 4.765625 L 5.1171875,2.9375 C 6.0118013,2.4316414 6.8388247,1.9711433 7.4511719,1.6386719 7.7573455,1.4724362 8.0095918,1.3387296 8.1894531,1.2460938 8.2793838,1.1997758 8.351421,1.1645589 8.4023438,1.140625 c 0.025461,-0.011967 0.046451,-0.021706 0.060547,-0.027344 0.00628,-0.00251 0.010354,-0.00479 0.013672,-0.00586 z m -0.087891,2.3652343 c -1.467e-4,8.8e-6 -0.00959,0.0019 -0.00977,0.00195 -1.758e-4,5.64e-5 -0.00565,0.0038 -0.00586,0.00391 -4.096e-4,2.076e-4 -0.00597,0.00251 -0.00781,0.00391 -0.00369,0.00279 -0.00546,0.00541 -0.00781,0.00781 -0.00471,0.0048 -0.010417,0.00912 -0.015625,0.015625 -0.010416,0.013001 -0.022886,0.031892 -0.039063,0.054687 C 8.2703821,3.6061378 8.225572,3.6708506 8.171875,3.7519531 8.0644809,3.9141581 7.9189809,4.1403892 7.7578125,4.3945312 7.4354758,4.9028153 7.0508146,5.5254412 6.7753906,5.9882812 L 6.5058594,6.4394531 h 1.8867187 c 0.4993792,0 0.9487238,-0.00899 1.2734375,-0.021484 0.1623569,-0.00625 0.2944981,-0.013137 0.3847654,-0.021484 0.04513,-0.00417 0.08019,-0.00866 0.105469,-0.013672 0.01264,-0.00251 0.02257,-0.00515 0.0332,-0.00977 0.0027,-0.00115 0.0047,-0.00202 0.0078,-0.00391 0.0031,-0.00189 0.0092,-0.00723 0.0098,-0.00781 5.56e-4,-5.838e-4 0.01156,-0.018944 0.01172,-0.019531 8.2e-5,-2.938e-4 1.8e-5,-0.013377 0,-0.013672 -1.8e-5,-2.946e-4 -0.0018,-0.013376 -0.002,-0.013672 C 10.20454,6.2836231 10.17359,6.2291021 10.12107,6.14062 10.068567,6.0521431 9.9960105,5.9367857 9.9121094,5.8007812 9.7443071,5.5287723 9.5257259,5.1800409 9.3085938,4.8378906 9.0914616,4.4957403 8.8753702,4.1597257 8.7109375,3.9082031 8.6287212,3.7824418 8.5598478,3.6767164 8.5097656,3.6035156 c -0.025041,-0.0366 -0.045534,-0.063782 -0.060547,-0.083984 -0.00751,-0.010101 -0.012095,-0.019025 -0.017578,-0.025391 -0.00274,-0.00318 -0.00619,-0.00457 -0.00977,-0.00781 -0.00179,-0.00162 -0.00732,-0.00555 -0.00781,-0.00586 -2.449e-4,-1.529e-4 -0.00762,-0.00383 -0.00781,-0.00391 -1.951e-4,-7.26e-5 -0.017433,-0.00391 -0.017578,-0.00391 z m 0.00391,0.1035157 c 0.013399,0.01835 0.029063,0.042475 0.050781,0.074219 0.049465,0.072299 0.1191221,0.1752748 0.2011718,0.3007813 0.1640995,0.2510128 0.3787162,0.589719 0.5957032,0.9316406 0.216987,0.3419216 0.4359963,0.6874341 0.6035156,0.9589844 0.08376,0.1357751 0.1549183,0.2540115 0.2070312,0.3417969 0.03958,0.06667 0.05469,0.097081 0.06836,0.1230468 -0.02003,0.00323 -0.04133,0.00654 -0.07617,0.00977 -0.087484,0.00809 -0.2173486,0.015268 -0.3789067,0.021484 -0.3231161,0.012432 -0.7729428,0.019531 -1.2714844,0.019531 H 6.6503906 L 6.84375,6.0292969 C 7.1184973,5.5675939 7.5042022,4.9452052 7.8261719,4.4375 7.9871567,4.1836474 8.1333565,3.9583002 8.2402344,3.796875 c 0.053439,-0.080713 0.09752,-0.1452233 0.1289062,-0.1894531 0.00975,-0.013734 0.016297,-0.021742 0.023437,-0.03125 z m 2.0878908,2.9121093 v 1.8359376 c 0,0.4857037 0.0042,0.9275324 0.01367,1.2480468 0.0048,0.1602572 0.01124,0.2902099 0.01758,0.3808594 0.0032,0.045325 0.0061,0.081885 0.0098,0.1074223 0.0018,0.01277 0.0031,0.02171 0.0059,0.03125 0.0014,0.0048 0.004,0.009 0.0078,0.01563 9.6e-4,0.0017 0.0037,0.0056 0.0039,0.0059 2.24e-4,2.88e-4 0.0056,0.0076 0.0059,0.0078 2.24e-4,1.92e-4 0.01149,0.0058 0.01172,0.0059 2.24e-4,9.7e-5 0.0154,0.0039 0.01563,0.0039 2.06e-4,0 0.0075,4.8e-5 0.0078,0 2.86e-4,-4.8e-5 0.0026,-0.0016 0.0039,-0.002 0.0025,-6.67e-4 0.004,-0.0013 0.0059,-0.002 0.0037,-0.0013 0.0079,-0.0022 0.01172,-0.0039 0.0077,-0.0035 0.01775,-0.0096 0.0293,-0.01563 0.0231,-0.01197 0.05453,-0.02894 0.09375,-0.05078 0.07844,-0.04368 0.186881,-0.1046374 0.316407,-0.1796882 0.259051,-0.1501016 0.60149,-0.3522065 0.945312,-0.5566406 0.343823,-0.2044341 0.688962,-0.4128523 0.957031,-0.5761719 0.134035,-0.08166 0.248856,-0.1515077 0.333985,-0.2050781 0.08513,-0.05357 0.136491,-0.085461 0.160156,-0.1054687 0.01619,-0.013685 0.02091,-0.040254 0.01758,-0.056641 -0.0033,-0.016386 -0.0107,-0.028369 -0.01953,-0.041016 -0.01767,-0.025293 -0.04336,-0.051823 -0.07813,-0.082031 C 13.287902,8.1934897 13.185774,8.1202227 13.064453,8.046875 12.824861,7.9020189 12.158006,7.5004314 11.583984,7.1542969 Z M 6.140625,6.578125 4.6484375,7.4726562 C 4.2550418,7.7084909 3.8986373,7.9268062 3.6386719,8.0898438 3.5086892,8.1713625 3.4016025,8.2402486 3.328125,8.2890625 3.291386,8.3134695 3.2644,8.3328175 3.244141,8.3476565 c -0.010129,0.00742 -0.018868,0.013893 -0.025391,0.019531 -0.00326,0.00282 -0.00648,0.00413 -0.00977,0.00781 -0.00164,0.00184 -0.00552,0.00727 -0.00586,0.00781 -1.682e-4,2.696e-4 -0.00382,0.00759 -0.00391,0.00781 -9.05e-5,2.234e-4 -0.00194,0.011542 -0.00195,0.011719 -1.14e-5,1.769e-4 0.00189,0.015401 0.00195,0.015625 6.59e-5,2.234e-4 0.00376,0.00754 0.00391,0.00781 2.857e-4,5.393e-4 0.00222,0.0077 0.00391,0.00977 0.00337,0.00412 0.00655,0.00684 0.00977,0.00977 0.00644,0.00586 0.015508,0.012058 0.025391,0.019531 0.019764,0.014947 0.047992,0.034138 0.083984,0.058594 0.071986,0.048912 0.1748244,0.115636 0.3027343,0.1972656 C 3.8847261,8.8839624 4.2364895,9.1036982 4.625,9.3398438 l 0.00977,0.00586 c 0.3839368,0.2333477 0.736946,0.4468695 0.9941406,0.6015625 0.1298577,0.078104 0.2362656,0.1414817 0.3105469,0.1855467 0.037141,0.02203 0.065476,0.03894 0.085937,0.05078 0.010231,0.0059 0.019428,0.01037 0.025391,0.01367 0.00298,0.0016 0.00552,0.0027 0.00781,0.0039 0.00115,5.86e-4 0.00238,0.0013 0.00391,0.002 0,0 0.00195,0.002 0.00195,0.002 1.651e-4,6.2e-5 0.00772,0.0019 0.00781,0.002 4.39e-5,7e-6 0.021441,-0.0019 0.021484,-0.002 4.38e-5,-1.7e-5 0.013628,-0.0078 0.013672,-0.0078 8.75e-5,-8.2e-5 0.00968,-0.01349 0.00977,-0.01367 8.72e-5,-1.78e-4 0.00187,-0.0056 0.00195,-0.0059 8.7e-5,-2.73e-4 -2.665e-4,-0.0028 0,-0.0039 0.00107,-0.0045 0.00152,-0.008 0.00195,-0.01172 8.649e-4,-0.0075 0.00127,-0.01529 0.00195,-0.02734 0.00137,-0.02411 0.00268,-0.05883 0.00391,-0.103516 0.00245,-0.089375 0.00596,-0.2195966 0.00781,-0.3789065 0.00371,-0.3186199 0.00586,-0.7580729 0.00586,-1.2421876 z m 4.419922,0.052734 0.982422,0.59375 c 0.574003,0.3461234 1.239029,0.7477862 1.478515,0.8925781 0.118223,0.071474 0.219196,0.1416394 0.283204,0.1972656 0.032,0.027813 0.05395,0.053329 0.06445,0.068359 -0.01643,0.011988 -0.05936,0.040439 -0.134766,0.087891 C 13.149832,8.523905 13.03423,8.5942404 12.900391,8.6757812 12.632711,8.838863 12.286986,9.0456824 11.943359,9.25 11.599733,9.4543176 11.258616,9.6567909 11,9.8066406 c -0.129308,0.074925 -0.236778,0.136432 -0.314453,0.1796875 -0.03624,0.020181 -0.06449,0.035664 -0.08594,0.046875 -0.0027,-0.02158 -0.0052,-0.048468 -0.0078,-0.085937 -0.0062,-0.088608 -0.01088,-0.2173039 -0.01563,-0.3769531 -0.0095,-0.3192984 -0.01563,-0.7610465 -0.01563,-1.2460937 z M 6.0585938,6.722656 v 1.6875 c -10e-8,0.4838574 -0.00215,0.9240454 -0.00586,1.2421876 -0.00185,0.159071 -0.00343,0.2864344 -0.00586,0.3750004 -8.65e-4,0.0315 -0.00105,0.05151 -0.00195,0.07226 -0.018283,-0.01069 -0.03688,-0.02075 -0.064453,-0.03711 C 5.90645,10.018591 5.8016523,9.9550094 5.671875,9.8769531 5.4123203,9.7208406 5.0562253,9.5074776 4.6679688,9.2714844 c -0.00377,-0.00229 -0.006,-0.00357 -0.00977,-0.00586 C 4.2745682,9.0323506 3.9244716,8.813546 3.671875,8.6523438 3.5443384,8.5709524 3.4418821,8.5031762 3.3710938,8.4550781 3.3402045,8.43409 3.3183348,8.419218 3.3007812,8.40625 3.3189922,8.3931653 3.3409819,8.3767707 3.3730469,8.3554688 3.4454292,8.3073825 3.5520014,8.2414596 3.6816406,8.1601562 3.940919,7.9975496 4.2983979,7.7785711 4.6914062,7.5429688 Z m 3.5800781,3.982422 c -0.3201495,-0.0025 -0.7570674,-0.0021 -1.2324219,0.0039 l -1.7988281,0.02344 0.4921875,0.783203 c 0.2502718,0.397292 0.643467,1.017442 0.8730468,1.378906 0.1152727,0.181492 0.2254826,0.342811 0.3125,0.457031 0.043509,0.05711 0.081374,0.103486 0.1113282,0.134766 0.014977,0.01564 0.027811,0.02779 0.041016,0.03711 0.0066,0.0047 0.013889,0.0086 0.023437,0.01172 0.00239,7.84e-4 0.0049,0.0014 0.00781,0.002 0.00291,5.2e-4 0.0091,8e-6 0.00977,0 0.00133,-1.5e-5 0.022458,-0.0053 0.023437,-0.0059 0.011922,-0.0072 0.016443,-0.01359 0.023437,-0.02148 0.00699,-0.0079 0.014418,-0.01755 0.023437,-0.0293 0.01804,-0.0235 0.041192,-0.05453 0.068359,-0.09375 0.054334,-0.07843 0.1258305,-0.186273 0.2089844,-0.314453 0.1663077,-0.256362 0.3782925,-0.594084 0.5859375,-0.929688 0.2076449,-0.335604 0.4113043,-0.670183 0.5605468,-0.923828 0.074622,-0.126823 0.1342429,-0.232051 0.1757819,-0.308594 0.02077,-0.03827 0.03825,-0.06888 0.04883,-0.0918 0.0053,-0.01146 0.0088,-0.02224 0.01172,-0.03125 0.0015,-0.0045 0.0032,-0.0071 0.0039,-0.01367 3.66e-4,-0.0033 -0.0019,-0.01307 -0.002,-0.01367 -4.9e-5,-3.04e-4 -0.0019,-0.01149 -0.002,-0.01172 -9.8e-5,-2.26e-4 -0.0096,-0.01157 -0.0098,-0.01172 -1.56e-4,-1.53e-4 -0.0076,-0.0077 -0.0078,-0.0078 -2.5e-4,-1.52e-4 -0.0042,-0.0012 -0.0059,-0.002 -0.0033,-0.0014 -0.0055,-0.0033 -0.0078,-0.0039 -0.0046,-0.0013 -0.0092,-0.0012 -0.01367,-0.002 -0.009,-0.0014 -0.01989,-0.0028 -0.0332,-0.0039 -0.02662,-0.0021 -0.06301,-0.0043 -0.109375,-0.0059 -0.092737,-0.0032 -0.2227375,-0.0046 -0.3828122,-0.0059 z m -0.00195,0.08008 c 0.1596638,0.0013 0.2913878,0.0047 0.3828121,0.0078 0.04149,0.0014 0.07167,0.0041 0.0957,0.0059 -0.0093,0.01917 -0.02037,0.04142 -0.03711,0.07227 -0.04068,0.07496 -0.1014136,0.180249 -0.1757811,0.30664 -0.1487352,0.252783 -0.3531373,0.588605 -0.5605469,0.923828 -0.2074096,0.335224 -0.4181816,0.670198 -0.5839844,0.925782 -0.082901,0.127791 -0.1535498,0.235297 -0.2070313,0.3125 -0.026741,0.0386 -0.049786,0.07014 -0.066406,0.0918 -0.00507,0.0066 -0.00782,0.01089 -0.011719,0.01563 -0.0056,-0.0049 -0.0095,-0.0091 -0.017578,-0.01758 -0.02605,-0.0272 -0.063011,-0.07122 -0.1054687,-0.126954 C 8.2646941,13.191276 8.1552746,13.031458 8.0410156,12.851562 7.8115323,12.49025 7.4181609,11.869822 7.1679688,11.472656 L 6.7519531,10.8125 l 1.65625,-0.02148 c 0.4748947,-0.006 0.909188,-0.0084 1.2285157,-0.0059 z"
         id="path951" />
    </g>
  </g>
</svg>
